<svg viewBox="0 0 28 28" fill="none" xmlns="http://www.w3.org/2000/svg">
<path d="M12.25 3.5L9.33331 10.5L14 25.6667L18.6666 10.5L15.75 3.5" stroke="currentColor" stroke-width="2.33333" stroke-linecap="round" stroke-linejoin="round"/>
<path d="M19.8333 3.5C20.5678 3.5 21.2593 3.84579 21.7 4.43333L25.2 9.1C25.8163 9.92198 25.8225 11.0503 25.2152 11.879L15.8935 24.696C15.4551 25.3054 14.7502 25.6667 13.9994 25.6667C13.2487 25.6667 12.5438 25.3054 12.1053 24.696L2.78367 11.879C2.17672 11.0501 2.18335 9.92172 2.8 9.1L6.29767 4.43683C6.73809 3.84731 7.4308 3.50009 8.16667 3.5L19.8333 3.5M2.33333 10.5H25.6667" stroke="currentColor" stroke-width="2.33333" stroke-linecap="round" stroke-linejoin="round"/>
</svg>
