<svg viewBox="0 0 28 28" fill="none" xmlns="http://www.w3.org/2000/svg">
<path d="M4.66666 16.3333C4.21603 16.3349 3.80481 16.0767 3.6103 15.6703C3.41579 15.2638 3.47276 14.7816 3.75666 14.4317L15.3067 2.53166C15.4851 2.32569 15.7824 2.27071 16.0227 2.39925C16.263 2.52778 16.3823 2.80557 16.31 3.06833L14.07 10.0917C13.9359 10.4505 13.9865 10.8523 14.2054 11.1667C14.4243 11.481 14.7836 11.6679 15.1667 11.6667H23.3333C23.7839 11.6651 24.1952 11.9232 24.3897 12.3297C24.5842 12.7362 24.5272 13.2184 24.2433 13.5683L12.6933 25.4683C12.5149 25.6743 12.2176 25.7293 11.9773 25.6007C11.737 25.4722 11.6177 25.1944 11.69 24.9317L13.93 17.9083C14.0641 17.5495 14.0134 17.1477 13.7946 16.8333C13.5757 16.519 13.2164 16.3321 12.8333 16.3333H4.66666" stroke="currentColor" stroke-width="2.33333" stroke-linecap="round" stroke-linejoin="round"/>
</svg>
